<?xml version="1.0" encoding="UTF-8" standalone="no"?>
<svg
   width="56"
   height="56"
   version="1.1"
   id="svg8"
   sodipodi:docname="icon-bookmark-checked.svg"
   inkscape:version="1.1.2 (b8e25be833, 2022-02-05)"
   xmlns:inkscape="http://www.inkscape.org/namespaces/inkscape"
   xmlns:sodipodi="http://sodipodi.sourceforge.net/DTD/sodipodi-0.dtd"
   xmlns="http://www.w3.org/2000/svg"
   xmlns:svg="http://www.w3.org/2000/svg">
  <defs
     id="defs12" />
  <sodipodi:namedview
     id="namedview10"
     pagecolor="#ffffff"
     bordercolor="#666666"
     borderopacity="1.0"
     inkscape:pageshadow="2"
     inkscape:pageopacity="0.0"
     inkscape:pagecheckerboard="0"
     showgrid="false"
     inkscape:zoom="14.839286"
     inkscape:cx="28"
     inkscape:cy="27.966306"
     inkscape:window-width="1920"
     inkscape:window-height="1017"
     inkscape:window-x="-8"
     inkscape:window-y="-8"
     inkscape:window-maximized="1"
     inkscape:current-layer="svg8" />
  <g
     fill="none"
     fill-rule="evenodd"
     id="g6"
     style="fill:#ffffff">
    <circle
       fill="#2F2F2F"
       cx="28"
       cy="28"
       r="28"
       id="circle2"
       style="fill:#ffffff" />
    <path
       fill="#B1B1B1"
       d="M23 19v18l5-5.058L33 37V19z"
       id="path4"
       style="fill:#ffffff" />
  </g>
  <path
     style="fill:#3cb4ac;stroke-width:0.067;fill-opacity:1;fill-rule:evenodd;stroke-miterlimit:4;stroke-dasharray:none"
     d="m 26.416366,55.927149 c -0.129723,-0.01475 -0.613059,-0.05948 -1.074078,-0.09938 -1.10984,-0.09607 -2.64146,-0.351171 -3.845296,-0.640453 C 9.7817161,52.372127 1.1648539,42.356433 0.13596074,30.358604 0.04270907,29.271205 0.04298372,26.629929 0.13645544,25.601076 0.73966734,18.961458 3.6025694,12.843985 8.2856879,8.1877256 15.085174,1.4272376 24.93383,-1.4021386 34.202978,0.74206415 44.212017,3.0574235 52.056998,10.494575 54.889318,20.353001 c 0.351426,1.223207 0.649725,2.658633 0.853916,4.109093 0.13443,0.954907 0.151922,1.35567 0.152949,3.504212 0.0013,2.67694 -0.06999,3.471411 -0.504689,5.626056 -1.292792,6.4079 -4.881479,12.232712 -10.070699,16.345795 -4.125822,3.270211 -9.162017,5.309537 -14.557859,5.894971 -0.680251,0.07381 -3.910017,0.143669 -4.34657,0.09402 z m 4.093599,-21.396715 2.50369,2.533345 0.0034,-9.046932 0.0034,-9.046931 H 28 22.979543 l 0.0028,9.046931 0.0028,9.046932 2.510568,-2.533345 2.510567,-2.533345 2.503689,2.533345 z"
     id="path902" />
  <path
     style="fill:#afe4e0;fill-opacity:1;fill-rule:evenodd;stroke-width:0.005;stroke-miterlimit:4;stroke-dasharray:none"
     d="M 25.270758,55.795437 C 17.496103,54.920271 10.906085,51.300946 6.0583588,45.243734 5.4867815,44.529551 4.1938539,42.6088 3.7068142,41.75032 1.9362762,38.629483 0.79541935,35.200879 0.28624331,31.470517 0.08379959,29.98736 0.06754284,26.19249 0.25737483,24.731649 0.69551117,21.359995 1.5860597,18.432201 3.0758012,15.465704 5.8456248,9.9502013 10.332674,5.5389603 15.900086,2.8580834 c 2.778804,-1.3380778 5.559618,-2.153728 8.865257,-2.60029871 1.30858,-0.17678092 5.143895,-0.17702265 6.503008,-4.0986e-4 3.697887,0.48052935 7.33971,1.67562647 10.43555,3.42451887 1.02578,0.5794805 2.853223,1.8196117 3.817158,2.5903829 1.171207,0.936507 3.276567,3.0428139 4.204774,4.2066644 3.062554,3.840043 4.942455,8.045639 5.846233,13.078827 0.207919,1.157912 0.211203,1.210548 0.241343,3.869428 0.04048,3.570727 -0.05801,4.566934 -0.719486,7.277978 -1.910824,7.831427 -7.314553,14.596796 -14.559969,18.228812 -2.803114,1.405158 -5.873889,2.33911 -9.198214,2.797562 -1.103674,0.152207 -4.922988,0.192439 -6.064982,0.06389 z m 5.256318,-21.191346 2.527076,2.526402 V 28.050205 18.969916 H 28 22.945848 v 9.080289 9.080288 L 25.472924,34.604091 28,32.07769 Z"
     id="path2653" />
  <path
     style="fill:#afe4e0;fill-opacity:1;fill-rule:evenodd;stroke-width:0.000336943;stroke-miterlimit:4;stroke-dasharray:none"
     d="M 25.506619,55.785569 C 24.102793,55.664206 21.833271,55.218791 20.182912,54.740742 10.680828,51.988334 3.2897476,44.255067 0.9107836,34.57637 0.42558793,32.602375 0.23516903,31.147061 0.16493206,28.876053 0.05987827,25.479294 0.47360681,22.510296 1.4796138,19.441637 3.3662351,13.686808 6.9572068,8.791533 11.860942,5.2896312 c 3.60831,-2.5768 7.688246,-4.2005987 12.365691,-4.92149596 1.175088,-0.18110703 4.691798,-0.26039596 6.244524,-0.14079113 3.723174,0.28679233 8.362717,1.76585269 11.546805,3.68105729 0.700655,0.4214389 2.487178,1.6327328 3.138606,2.1280301 1.164466,0.885374 3.517311,3.2012294 4.515715,4.4447235 2.992326,3.726887 4.882373,7.900744 5.827479,12.869026 0.232088,1.220053 0.321134,3.064799 0.273239,5.660649 -0.04795,2.5988 -0.187796,3.654523 -0.793896,5.993218 -2.206791,8.515108 -8.53206,15.689846 -16.634941,18.868975 -2.545307,0.99864 -5.568136,1.72626 -7.850783,1.88975 -0.864109,0.06189 -4.350219,0.07783 -4.986762,0.0228 z m 5.037084,-21.13116 2.544143,2.543482 V 28.083904 18.969916 H 28 22.912154 v 9.114208 9.114209 l 2.543703,-2.543703 2.543703,-2.543704 z"
     id="path3765" />
  <path
     style="fill:#afe4e0;fill-opacity:1;fill-rule:evenodd;stroke-width:0.000336943;stroke-miterlimit:4;stroke-dasharray:none"
     d="M 25.203369,55.754336 C 21.066902,55.326221 16.622419,53.785853 13.13855,51.572914 6.4386868,47.31719 1.8495251,40.440975 0.50934305,32.649819 0.28788053,31.362346 0.21921244,30.614136 0.16609244,28.909747 0.05503663,25.346452 0.50032184,22.268731 1.5846893,19.104693 3.5104168,13.48568 7.0490401,8.7300947 11.86981,5.2824334 15.001258,3.042921 18.706152,1.4429453 22.541516,0.67380669 24.832748,0.21432632 24.967162,0.20274944 28,0.20367687 c 3.005086,9.1891e-4 3.313003,0.0262756 5.355104,0.44098745 2.217998,0.45043328 4.337706,1.14014538 6.404222,2.08381018 2.170025,0.9909317 4.909659,2.7858889 6.604092,4.3268779 0.964878,0.8775011 2.561064,2.5163024 3.18312,3.2681056 3.070008,3.710337 5.098845,8.22442 6.021393,13.39736 0.176944,0.992171 0.180419,1.067433 0.188241,4.077016 0.0086,3.311738 -0.01288,3.627832 -0.368666,5.424789 -0.735784,3.716146 -2.039979,6.92063 -4.084022,10.034673 -3.69948,5.636057 -9.213042,9.701382 -15.621174,11.517987 -1.951029,0.553087 -3.648724,0.876002 -5.189501,0.987086 -1.122314,0.08091 -4.479289,0.07581 -5.28944,-0.008 z m 5.340334,-21.099927 2.544143,2.543482 V 28.083904 18.969916 H 28 22.912154 v 9.114208 9.114209 l 2.543703,-2.543703 2.543703,-2.543704 z"
     id="path3804" />
  <path
     style="fill:#147b72;fill-opacity:1;fill-rule:evenodd;stroke-width:0.000336943;stroke-miterlimit:4;stroke-dasharray:none"
     d="M 24.933815,55.728316 C 18.050182,54.862606 11.911311,51.730404 7.4566035,46.811017 4.3081739,43.334167 2.1979764,39.465757 1.0183504,35.008424 0.51161866,33.093688 0.29641683,31.669376 0.19114975,29.533601 0.06375631,26.948904 0.22077398,24.620515 0.66785325,22.464643 1.7747597,17.127005 4.40334,12.22847 8.22142,8.3880682 10.426151,6.1704469 12.646506,4.5539065 15.398315,3.1628939 18.303661,1.6942706 20.944052,0.8667527 24.462094,0.32223975 25.1149,0.2212003 25.677918,0.20271807 28.033694,0.20499473 c 2.556878,0.002471 2.8804,0.0156923 3.773767,0.15422171 3.30447,0.51240563 6.568804,1.57735396 9.298082,3.03338356 0.9397,0.501316 2.903413,1.7752316 3.900774,2.5305417 1.405203,1.064171 3.806607,3.4400105 4.915433,4.8631043 2.947066,3.782333 4.845818,8.171218 5.683313,13.136738 0.136186,0.80745 0.148184,1.113525 0.153213,3.908544 0.0059,3.273229 -0.01691,3.604547 -0.370944,5.391095 -1.328545,6.704145 -4.811723,12.419176 -10.168271,16.683609 -3.800088,3.02531 -8.586254,5.042912 -13.681155,5.767273 -1.045252,0.148606 -5.560317,0.18608 -6.604091,0.05481 z m 5.609888,-21.073907 2.544143,2.543482 V 28.083904 18.969916 H 28 22.912154 v 9.114208 9.114209 l 2.543703,-2.543703 2.543703,-2.543704 z"
     id="path3991" />
</svg>
